<?xml version="1.0" encoding="UTF-8" standalone="no"?>
<!-- Created with Inkscape (http://www.inkscape.org/) -->

<svg
   xmlns:dc="http://purl.org/dc/elements/1.1/"
   xmlns:cc="http://creativecommons.org/ns#"
   xmlns:rdf="http://www.w3.org/1999/02/22-rdf-syntax-ns#"
   xmlns:svg="http://www.w3.org/2000/svg"
   xmlns="http://www.w3.org/2000/svg"
   xmlns:xlink="http://www.w3.org/1999/xlink"
   xmlns:sodipodi="http://sodipodi.sourceforge.net/DTD/sodipodi-0.dtd"
   xmlns:inkscape="http://www.inkscape.org/namespaces/inkscape"
   version="1.0"
   width="900"
   height="600"
   id="svg1399"
   inkscape:version="0.47 r22583"
   sodipodi:docname="Coat_of_Arms_of_Denmark.svg">
  <metadata
     id="metadata22">
    <rdf:RDF>
      <cc:Work
         rdf:about="">
        <dc:format>image/svg+xml</dc:format>
        <dc:type
           rdf:resource="http://purl.org/dc/dcmitype/StillImage" />
      </cc:Work>
    </rdf:RDF>
  </metadata>
  <sodipodi:namedview
     pagecolor="#ffffff"
     bordercolor="#666666"
     borderopacity="1"
     objecttolerance="10"
     gridtolerance="10"
     guidetolerance="10"
     inkscape:pageopacity="0"
     inkscape:pageshadow="2"
     inkscape:window-width="1280"
     inkscape:window-height="1004"
     id="namedview20"
     showgrid="false"
     inkscape:zoom="1"
     inkscape:cx="463.24232"
     inkscape:cy="294.28301"
     inkscape:window-x="-8"
     inkscape:window-y="-8"
     inkscape:window-maximized="1"
     inkscape:current-layer="svg1399" />
  <defs
     id="defs1413">
    <inkscape:perspective
       sodipodi:type="inkscape:persp3d"
       inkscape:vp_x="0 : 300 : 1"
       inkscape:vp_y="0 : 1000 : 0"
       inkscape:vp_z="900 : 300 : 1"
       inkscape:persp3d-origin="450 : 200 : 1"
       id="perspective24" />
    <inkscape:perspective
       id="perspective3075"
       inkscape:persp3d-origin="0.5 : 0.33333333 : 1"
       inkscape:vp_z="1 : 0.5 : 1"
       inkscape:vp_y="0 : 1000 : 0"
       inkscape:vp_x="0 : 0.5 : 1"
       sodipodi:type="inkscape:persp3d" />
    <inkscape:perspective
       id="perspective2837"
       inkscape:persp3d-origin="0.5 : 0.33333333 : 1"
       inkscape:vp_z="1 : 0.5 : 1"
       inkscape:vp_y="0 : 1000 : 0"
       inkscape:vp_x="0 : 0.5 : 1"
       sodipodi:type="inkscape:persp3d" />
  </defs>
  <rect
     width="900"
     height="600"
     x="0"
     y="0"
     id="rect4890"
     style="fill:#3399ff;fill-opacity:1;fill-rule:evenodd;stroke:none;stroke-width:2;stroke-linecap:square;stroke-linejoin:round;stroke-miterlimit:4;stroke-dasharray:none;stroke-dashoffset:0.99999998;stroke-opacity:1" />
  <path
     d="M 433.98094,482.56985 A 81.052322,82.966942 0 1 1 271.8763,482.56985 A 81.052322,82.966942 0 1 1 433.98094,482.56985 z"
     transform="matrix(1.529876,0,0,1.4945712,154.06298,-279.6982)"
     id="path2262"
     style="fill:#ffffff;fill-opacity:1;stroke:none;stroke-width:1;stroke-miterlimit:4;stroke-dasharray:none;stroke-opacity:1" />
  <path
     d="M 433.98094,482.56985 A 81.052322,82.966942 0 1 1 271.8763,482.56985 A 81.052322,82.966942 0 1 1 433.98094,482.56985 z"
     transform="matrix(1.2214332,0,0,1.1932463,262.92127,-134.28789)"
     id="path3237"
     style="fill:none;fill-opacity:1;stroke:#f42a41;stroke-width:16.56647491000000000;stroke-miterlimit:4;stroke-dasharray:none;stroke-opacity:1" />
  <path
     d="M 667.86851,512.95179 C 667.37542,512.62072 666.74413,512.19635 666.46563,512.00873 C 665.25026,511.18994 660.46579,507.54143 659.30253,506.54635 C 655.93454,503.6653 652.28151,499.91472 649.66643,496.65299 C 647.90124,494.45128 644.1777,488.81383 643.19544,486.8559 C 640.59381,481.67003 638.86718,474.89386 638.62594,468.92287 C 638.36848,462.55038 640.55557,455.24183 644.39563,449.64243 C 646.1789,447.04214 648.23191,444.7989 651.71866,441.64083 C 655.14135,438.54079 661.42979,434.11823 666.8799,430.97815 C 671.0459,428.57792 671.62263,428.21786 673.47248,426.86235 C 676.51036,424.63628 679.08968,422.12934 681.11128,419.43791 C 682.67879,417.35103 683.97498,413.95273 684.32196,411.02023 C 684.51166,409.4169 684.39577,406.17489 684.10792,405.03302 C 683.95506,404.42666 683.94482,404.19044 684.06701,404.08905 C 684.15663,404.01467 684.7717,403.8157 685.43384,403.64687 C 686.09597,403.47806 687.14266,403.1406 687.75982,402.89699 L 688.88191,402.45403 L 689.86242,403.51055 C 691.71841,405.51041 693.42146,408.46 694.1281,410.89845 C 694.75218,413.052 694.94602,414.28877 695.02261,416.60587 C 695.22046,422.59099 693.38161,428.82179 689.66794,434.74971 C 687.83035,437.68298 684.65055,441.81109 681.09346,445.88136 C 680.63739,446.40324 679.65874,447.52473 678.91871,448.37356 C 675.80344,451.94685 671.2715,458.07727 669.63112,460.93703 C 669.4077,461.32653 669.0729,461.86827 668.8871,462.14092 C 668.22783,463.10833 665.90146,468.04323 665.34842,469.64747 C 664.83162,471.14654 664.30098,473.47943 663.9148,475.95015 C 663.66461,477.55085 663.69586,481.68415 663.96995,483.24425 C 665.02206,489.2327 667.16368,493.82575 670.81022,497.91432 C 671.45288,498.6349 671.97869,499.33312 671.97869,499.46595 C 671.97869,499.59878 671.76076,500.06632 671.4944,500.50496 C 671.04015,501.253 670.24983,502.89279 669.88131,503.85187 C 669.79151,504.08556 669.54462,504.94599 669.33266,505.76391 C 668.98078,507.12179 668.94669,507.48497 668.94043,509.94209 C 668.93666,511.42215 668.97978,512.84026 669.03626,513.09343 C 669.17558,513.71795 668.97305,513.69339 667.86851,512.95179 z"
     id="path2475"
     style="fill:#f42a41;fill-opacity:1;stroke:#f42a41;stroke-opacity:1" />
  <path
     d="M 672.73626,495.65927 C 669.55958,492.25301 667.25268,486.95867 666.58611,481.54465 C 666.0557,477.23651 667.38898,471.22152 670.02378,466.03583 C 672.6917,460.78498 678.2678,453.23299 684.6649,446.20661 C 688.12267,442.40871 689.38384,440.86732 690.92222,438.55901 C 692.19213,436.65352 694.24886,432.90942 695.06202,431.02281 C 696.31044,428.12639 697.34734,424.70229 697.69079,422.34202 C 698.06042,419.80176 698.12902,415.75563 697.83281,413.96563 C 696.93706,408.55283 695.45449,405.23414 692.34025,401.67072 C 691.96924,401.24621 691.6657,400.8285 691.6657,400.74248 C 691.6657,400.65647 691.89589,400.36645 692.17723,400.098 C 692.45857,399.82955 693.06374,399.10003 693.52205,398.47684 C 694.67099,396.91457 694.60387,396.97692 695.03605,397.07058 C 696.06511,397.29359 698.59034,398.28213 700.30531,399.13331 C 704.7375,401.33311 708.24729,404.27514 711.71075,408.69379 C 713.2642,410.67564 715.266,414.70426 716.43011,418.19147 C 717.59837,421.69113 717.86748,425.40315 717.2341,429.28204 C 717.0138,430.63124 716.31379,433.23093 715.95652,434.02675 C 715.8516,434.26044 715.5411,434.98071 715.2665,435.62735 C 714.41178,437.64011 711.87082,441.81069 710.02872,444.22433 C 708.25835,446.54398 705.5013,449.79787 703.8407,451.52748 C 700.61106,454.89132 697.50107,459.32857 695.85597,462.9199 C 693.81645,467.37223 692.8733,472.97695 693.35342,477.79138 C 693.44666,478.72615 693.55458,479.59965 693.59327,479.73249 C 693.67094,479.99914 693.28809,480.29986 691.37632,481.47383 C 690.26346,482.15722 688.77332,483.14721 686.74366,484.55156 C 683.14503,487.04152 677.30395,492.50126 675.26262,495.28307 C 674.69831,496.05206 674.06498,496.69939 673.87694,496.69939 C 673.78307,496.69939 673.26976,496.23134 672.73626,495.65927 z"
     id="path2473"
     style="fill:#f42a41;fill-opacity:1;stroke:#f42a41;stroke-opacity:1" />
  <path
     d="M 696.42728,477.82679 C 696.22123,476.72495 696.16314,473.14719 696.33074,471.88087 C 697.26098,464.85239 700.18982,459.43741 706.69315,452.72231 C 711.3437,447.92032 714.56502,443.42383 717.44862,437.70921 C 719.33297,433.97491 720.56286,429.75457 720.62678,426.80346 C 720.65803,425.36123 720.40081,422.166 720.13975,420.75357 C 719.61033,417.88905 718.36143,414.40172 716.85445,411.57986 C 715.78558,409.57841 713.26602,405.87674 711.71227,404.02513 C 710.95985,403.12846 709.75851,401.90804 709.04264,401.31309 C 707.75274,400.24109 704.83154,398.24325 703.11075,397.25625 C 701.91145,396.56835 698.90379,395.24732 697.29296,394.70094 C 696.57386,394.45702 695.90583,394.19519 695.80846,394.11908 C 695.70474,394.03802 695.6305,393.65061 695.62921,393.18367 C 695.62614,392.07806 695.33001,390.92875 694.8115,390.01001 C 694.5699,389.58188 694.41121,389.19259 694.45888,389.14492 C 694.63252,388.97127 699.98971,389.06178 701.58539,389.26531 C 706.98896,389.95455 709.9311,390.89431 715.12975,393.59153 C 723.60322,397.98784 730.88128,405.26254 735.04547,413.49811 C 736.48702,416.34903 737.45618,419.29119 737.96755,422.36887 C 739.10227,429.19811 739.17663,435.81973 738.1764,440.96677 C 737.79477,442.93063 737.16438,445.29789 736.4205,447.56059 C 735.62617,449.97675 734.93858,451.56577 733.32894,454.70518 C 732.93717,455.46928 731.21514,458.15342 730.73246,458.75235 C 728.77087,461.18632 726.43343,463.56703 724.92694,464.66531 C 723.39918,465.77911 716.74619,469.16338 713.69738,470.37763 C 713.03534,470.64129 709.92734,472.02866 707.98766,472.92636 C 707.5001,473.15201 706.54408,473.58205 705.86317,473.88202 C 704.66422,474.41019 699.36546,477.00477 697.73054,477.86424 C 696.70596,478.40285 696.53409,478.39791 696.42728,477.82679 z"
     id="path2471"
     style="fill:#f42a41;fill-opacity:1;stroke:#f42a41;stroke-opacity:1" />
  <path
     d="M 735.43032,457.75456 C 735.43032,457.66575 735.77398,456.94331 736.19402,456.14914 C 737.61271,453.46674 739.25018,449.1076 740.02282,445.95641 C 740.22854,445.1174 740.62043,443.61963 740.8937,442.62803 C 741.96442,438.74287 742.2505,435.34371 741.95571,430.00943 C 741.65346,424.54033 740.41939,418.44811 738.82462,414.55219 C 737.62709,411.62671 735.58466,407.95853 734.17184,406.19584 C 730.19733,401.23709 727.32055,398.38198 723.05894,395.16658 C 718.92982,392.05115 714.89738,389.88696 710.21963,388.27579 C 704.90018,386.44361 701.29925,385.95724 693.61979,386.03369 C 691.04366,386.05933 689.09585,386.02382 689.05046,385.95037 C 688.85199,385.62926 691.97321,383.5579 694.39645,382.40256 C 696.92204,381.19842 698.12335,380.76544 701.15511,379.96655 C 704.83886,378.99587 709.63835,378.82241 713.688,379.5136 C 719.93312,380.57951 727.06807,383.70683 732.29494,387.6692 C 735.24655,389.90675 739.28411,393.76177 741.16671,396.1399 C 741.62922,396.72413 742.26942,397.48895 742.58938,397.83949 C 743.40154,398.72928 744.84449,400.64987 745.83486,402.1593 C 746.29486,402.86039 746.84263,403.68894 747.05214,404.00053 C 747.514,404.68745 748.51475,406.6687 749.39391,408.63667 C 751.25038,412.79236 752.61875,417.91131 753.20876,422.90768 C 753.81306,428.02511 753.06639,433.32432 751.05334,438.20492 C 749.45052,442.09096 746.38948,447.02798 743.50788,450.37467 C 741.48032,452.72947 735.43032,458.25693 735.43032,457.75456 z"
     id="path2469"
     style="fill:#f42a41;fill-opacity:1;stroke:#f42a41;stroke-opacity:1" />
  <path
     d="M 638.73676,428.82173 C 638.32399,428.36939 637.3555,426.54676 636.93742,425.43553 C 636.11102,423.23896 635.73702,420.40055 635.98577,418.21301 C 636.19266,416.39361 636.7202,414.49423 637.36494,413.24746 L 637.58826,412.81559 L 638.53108,413.74055 C 639.40692,414.59979 641.0271,415.78123 642.02329,416.28709 C 642.25698,416.40575 642.98994,416.67812 643.65207,416.89233 C 644.73983,417.24425 645.0677,417.28335 647.05126,417.29775 C 649.50466,417.31555 650.28217,417.16496 652.12278,416.31547 C 653.55136,415.65615 654.21176,415.09341 654.70606,414.1142 C 655.42179,412.69635 655.20432,410.98833 654.17729,409.96131 C 653.03622,408.82023 650.95653,408.30538 647.47617,408.30235 C 643.20467,408.29863 639.90515,408.87178 638.28574,409.89878 C 637.935,410.12121 637.5954,410.3032 637.53108,410.3032 C 637.39564,410.3032 637.33805,410.17376 636.5859,408.17871 C 634.60373,402.92115 634.58755,402.86921 634.58755,401.76252 C 634.58755,401.01134 634.67011,400.52153 634.87466,400.05911 C 635.49823,398.64942 636.35566,398.04307 638.49186,397.50109 C 640.22441,397.06153 640.46703,396.83642 640.32909,395.79651 C 640.27782,395.41009 640.19912,395.03443 640.15418,394.96172 C 640.0249,394.75254 638.42321,394.94404 637.49103,395.28014 C 635.95582,395.83366 636.08873,395.86636 636.1951,394.96124 C 636.36745,393.49486 636.79781,392.62813 637.90249,391.52265 C 638.6392,390.7854 639.19083,390.38276 639.96961,390.01385 C 641.92247,389.08877 642.24738,389.05824 650.13962,389.05824 L 657.20858,389.05824 L 657.73222,389.90659 C 658.9024,391.80244 660.86617,392.36874 662.87022,391.38825 C 663.61827,391.02226 664.0689,390.54112 664.64478,389.49351 L 664.88823,389.05063 L 689.18711,389.12906 L 689.93602,389.46747 C 691.88045,390.3461 692.77618,392.76652 691.94102,394.88535 C 691.61013,395.72481 691.33646,396.1355 690.3784,397.23032 C 688.17383,399.74961 685.32499,400.90203 681.57245,400.79251 C 679.45519,400.73072 679.40618,400.77239 679.93717,402.18268 C 681.76406,407.03487 681.63617,411.54103 679.55191,415.75608 C 677.86628,419.16497 675.23209,421.62103 671.56681,423.20122 C 668.74763,424.41663 667.4135,424.56651 658.45273,424.67454 C 647.93222,424.80137 646.58917,424.88534 644.36024,425.55565 C 642.38494,426.14969 641.2043,426.88248 639.86959,428.34286 C 639.46869,428.78151 639.11522,429.14041 639.08411,429.14041 C 639.05301,429.14041 638.8967,428.997 638.73676,428.82173 z"
     id="path2467"
     style="fill:#f42a41;fill-opacity:1;stroke:#f42a41;stroke-opacity:1" />
  <path
     d="M 661.46243,385.83483 C 657.15981,385.81372 653.99129,385.74414 653.99129,385.67078 C 653.99129,385.47962 655.14057,384.14378 656.14686,383.16531 C 659.07997,380.31328 661.0745,379.59069 667.82134,378.93579 C 671.48921,378.57975 672.47955,378.11305 675.0238,375.54159 C 677.31404,373.22685 678.78664,372.19345 681.36415,371.09222 C 684.54454,369.73341 686.72317,369.45291 693.29447,369.55623 C 699.63542,369.65592 703.20346,370.07317 707.59942,371.22908 C 712.91896,372.62784 715.54454,373.65262 718.91199,375.64445 C 722.59636,377.82374 725.41377,379.98763 723.37339,379.07099 C 723.11072,378.95299 722.80019,378.7974 722.68334,378.72525 C 722.5035,378.61421 720.95922,378.11687 718.00945,377.22004 C 712.98687,375.693 707.71998,375.41074 702.64226,376.39651 C 695.43176,377.79631 689.51202,380.61919 684.94795,384.83417 L 683.82471,385.87149 L 676.37914,385.87149 C 672.28408,385.87149 665.57156,385.855 661.46243,385.83483 z"
     id="path2434"
     style="fill:#f42a41;fill-opacity:1;stroke:#f42a41;stroke-opacity:1" />
  <rect
     width="449.9892"
     height="299.99396"
     x="0.0010957718"
     y="-0.0030527078"
     id="rect3856"
     style="fill:#f42a41;fill-opacity:1" />
  <path
     d="m 308.67662,149.99392 c 0,62.30336 -50.50673,112.81023 -112.8098,112.81023 -62.30314,0 -112.809893,-50.50687 -112.809893,-112.81023 0,-62.303367 50.506733,-112.810237 112.809893,-112.810237 62.30307,0 112.8098,50.50687 112.8098,112.810237 l 0,0 z"
     id="path3860"
     style="fill:#ffffff" />
  <path
     d="m 344.12509,149.99392 c 0,58.87868 -47.73039,106.60931 -106.60893,106.60931 -58.87844,0 -106.60886,-47.73063 -106.60886,-106.60931 0,-58.878697 47.73042,-106.609317 106.60886,-106.609317 58.87854,0 106.60893,47.73062 106.60893,106.609317 z"
     id="path3862"
     style="fill:#f42a41;fill-opacity:1" />
  <path
     d="m 209.82832,152.71561 -15.32469,-11.75603 -15.32089,11.76162 5.89842,-18.95677 -15.37342,-11.68551 18.97017,0.0402 5.81956,-18.98366 5.82575,18.98156 18.97015,-0.0469 -15.36962,11.69107 5.90458,18.95453 z"
     id="star"
     style="fill:#ffffff" />
  <use
     transform="translate(120.24487,1.3e-6)"
     id="use3865"
     x="0"
     y="0"
     width="4320"
     height="2880"
     xlink:href="#star" />
  <use
     transform="translate(60.183793,-44.626389)"
     id="use3867"
     x="0"
     y="0"
     width="4320"
     height="2880"
     xlink:href="#star" />
  <use
     transform="translate(22.499473,71.404611)"
     id="use3869"
     x="0"
     y="0"
     width="4320"
     height="2880"
     xlink:href="#star" />
  <use
     transform="translate(97.745393,71.404611)"
     id="use3871"
     x="0"
     y="0"
     width="4320"
     height="2880"
     xlink:href="#star" />
</svg>
