<?xml version="1.0" encoding="utf-8"?>
<!-- Generator: Adobe Illustrator 17.1.0, SVG Export Plug-In . SVG Version: 6.00 Build 0)  -->
<!DOCTYPE svg PUBLIC "-//W3C//DTD SVG 1.1//EN" "http://www.w3.org/Graphics/SVG/1.1/DTD/svg11.dtd">
<svg version="1.1" id="Layer_1" xmlns="http://www.w3.org/2000/svg" xmlns:xlink="http://www.w3.org/1999/xlink" x="0px" y="0px"
	 viewBox="0 0 1052 1052" style="enable-background:new 0 0 1052 1052;" xml:space="preserve">
<style type="text/css">
	.st0{fill:#F0DB4F;}
	.st1{fill:#323330;}
</style>
<rect class="st0" width="1052" height="1052"/>
<path class="st1" d="M996.917,868.869c-4.956-30.893-25.101-56.832-84.764-81.031c-20.725-9.525-43.83-16.348-50.717-32.051
	c-2.446-9.141-2.768-14.289-1.223-19.824c4.44-17.957,25.873-23.557,42.864-18.408c10.941,3.67,21.304,12.1,27.547,25.553
	c29.22-18.924,29.155-18.795,49.558-31.795c-7.465-11.586-11.456-16.928-16.348-21.883c-17.57-19.631-41.513-29.736-79.809-28.963
	c-6.629,0.836-13.322,1.738-19.952,2.574c-19.114,4.826-37.329,14.867-48.013,28.318c-32.053,36.365-22.913,100.02,16.09,126.215
	c38.424,28.834,94.869,35.398,102.078,62.365c7.015,33.018-24.265,43.701-55.352,39.904c-22.912-4.762-35.656-16.412-49.43-37.586
	c-25.358,14.674-25.358,14.674-51.425,29.67c6.179,13.516,12.68,19.629,23.042,31.344c49.043,49.752,171.781,47.307,193.792-27.998
	C995.759,912.699,1001.68,895.451,996.917,868.869z M743.333,664.457h-63.332c0,54.707-0.258,109.029-0.258,163.736
	c0,34.818,1.803,66.742-3.861,76.525c-9.269,19.244-33.275,16.863-44.217,13.131c-11.134-5.473-16.798-13.26-23.363-24.266
	c-1.802-3.154-3.153-5.6-3.604-5.793c-17.185,10.492-34.305,21.047-51.489,31.537c8.56,17.572,21.175,32.824,37.33,42.736
	c24.135,14.482,56.573,18.922,90.491,11.135c22.076-6.436,41.128-19.758,51.104-40.033c14.417-26.58,11.328-58.762,11.199-94.354
	C743.655,780.758,743.333,722.705,743.333,664.457z"/>
</svg>
